#!OML:ASF G:\JayActor3\Patient Classification 1\Patient 1\Session 6\male.ASF
:FULLY-SPECIFIED
:DEGREES
3374
root -0.201574 16.3942 -6.07694 177.837 -28.3422 -176.544
lowerback -0.585571 -1.3226 2.01143
upperback 2.83806 -1.9168 1.13072
thorax 3.21824 -0.950279 -0.0300327
lowerneck -1.89417 7.9815 10.2141
upperneck 0.0826671 10.4528 -5.22609
head 1.24097 5.19826 -3.22227
rclavicle -2.34954e-014 4.72114e-016
rhumerus -43.2017 -4.50899 -82.5161
rradius 37.6054
rwrist 0.183063
rhand -19.5672 -5.04206
rfingers 7.12502
rthumb 6.75767 -34.9142
lclavicle -2.34954e-014 4.72114e-016
lhumerus -29.0538 8.38199 83.9081
lradius 23.3636
lwrist 12.0552
lhand -15.1826 9.42356
lfingers 7.12502
lthumb 10.9886 39.116
rfemur -7.99486 3.21045 16.9496
rtibia 43.0038
rfoot -17.2855 -0.258694
rtoes -7.40074
lfemur -4.46463 15.1749 -24.1003
ltibia 23.6114
lfoot -28.5179 28.8534
ltoes 8.34826
3375
root -0.227556 16.3907 -6.06793 177.807 -28.3775 -176.552
lowerback -0.520332 -1.30801 1.91678
upperback 2.86556 -1.89344 1.10067
thorax 3.21197 -0.940849 -0.005963
lowerneck -1.9062 7.96796 10.2044
upperneck 0.0276092 10.4319 -5.20915
head 1.22162 5.18645 -3.21633
rclavicle 2.82966e-014 -2.23959e-014
rhumerus -43.1858 -4.48861 -82.5567
rradius 37.6731
rwrist 0.1626
rhand -19.5602 -5.03946
rfingers 7.12502
rthumb 6.7644 -34.9114
lclavicle 2.82966e-014 -2.23959e-014
lhumerus -29.1211 8.62054 83.7993
lradius 23.1135
lwrist 11.9449
lhand -15.1272 9.49214
lfingers 7.12502
lthumb 11.042 39.1817
rfemur -8.24719 3.11905 16.7741
rtibia 43.493
rfoot -16.9621 -0.108179
rtoes -7.46143
lfemur -4.37465 15.2389 -24.1826
ltibia 23.5582
lfoot -28.5757 28.673
ltoes 8.55032
3376
root -0.252928 16.3872 -6.0588 177.776 -28.4235 -176.572
lowerback -0.446789 -1.2978 1.80638
upperback 2.89639 -1.87566 1.06883
thorax 3.20475 -0.934664 0.0250399
lowerneck -1.91538 7.95513 10.197
upperneck -0.0319495 10.4123 -5.19759
head 1.20092 5.17516 -3.21281
rclavicle -5.26841e-014 -1.45361e-015
rhumerus -43.1669 -4.46078 -82.5978
rradius 37.7402
rwrist 0.151973
rhand -19.5481 -5.03182
rfingers 7.12502
rthumb 6.77608 -34.9034
lclavicle -5.26841e-014 -1.45361e-015
lhumerus -29.1828 8.86044 83.6894
lradius 22.8661
lwrist 11.8303
lhand -15.0728 9.558
lfingers 7.12502
lthumb 11.0945 39.2447
rfemur -8.51476 3.01754 16.5852
rtibia 44.0144
rfoot -16.6149 0.042156
rtoes -7.50232
lfemur -4.26907 15.3074 -24.2737
ltibia 23.4841
lfoot -28.5778 28.5161
ltoes 8.65842
3377
root -0.277689 16.3839 -6.04967 177.753 -28.4766 -176.611
lowerback -0.372265 -1.28958 1.67711
upperback 2.92961 -1.86017 1.03178
thorax 3.19977 -0.930025 0.0611417
lowerneck -1.92542 7.94265 10.195
upperneck -0.0910102 10.3929 -5.18932
head 1.18112 5.164 -3.2113
rclavicle -2.73608e-014 -8.17502e-015
rhumerus -43.1452 -4.42582 -82.6446
rradius 37.8081
rwrist 0.143185
rhand -19.5334 -5.02796
rfingers 7.12502
rthumb 6.79026 -34.8991
lclavicle -2.73608e-014 -8.17502e-015
lhumerus -29.2379 9.08914 83.5783
lradius 22.622
lwrist 11.7102
lhand -15.0228 9.61494
lfingers 7.12502
lthumb 11.1428 39.2991
rfemur -8.79989 2.91854 16.3755
rtibia 44.5656
rfoot -16.248 0.217778
rtoes -7.39135
lfemur -4.15529 15.3684 -24.3826
ltibia 23.3896
lfoot -28.4998 28.4208
ltoes 8.59747
3378
root -0.301837 16.3811 -6.04065 177.737 -28.5431 -176.668
lowerback -0.297467 -1.2843 1.52956
upperback 2.96644 -1.84838 0.989332
thorax 3.19867 -0.927657 0.101739
lowerneck -1.93865 7.93039 10.1958
upperneck -0.14864 10.3734 -5.18078
head 1.16252 5.15275 -3.21003
rclavicle -4.06887e-016 5.66536e-015
rhumerus -43.1197 -4.38891 -82.6954
rradius 37.8748
rwrist 0.133889
rhand -19.5205 -5.03971
rfingers 7.12502
rthumb 6.80275 -34.9104
lclavicle -4.06887e-016 5.66536e-015
lhumerus -29.2844 9.3123 83.4655
lradius 22.3777
lwrist 11.574
lhand -14.9913 9.64434
lfingers 7.12502
lthumb 11.1731 39.3268
rfemur -9.09879 2.81169 16.1477
rtibia 45.1408
rfoot -15.8573 0.377468
rtoes -7.34104
lfemur -4.03369 15.4255 -24.5076
ltibia 23.2767
lfoot -28.3202 28.4004
ltoes 8.31053
3379
root -0.325411 16.3785 -6.03173 177.723 -28.6256 -176.729
lowerback -0.225011 -1.28263 1.37604
upperback 3.00534 -1.84165 0.944922
thorax 3.20109 -0.927991 0.143413
lowerneck -1.95441 7.91801 10.2008
upperneck -0.20369 10.3535 -5.17402
head 1.14555 5.14126 -3.20998
rclavicle -1.76111e-014 -1.49089e-015
rhumerus -43.0889 -4.35711 -82.7457
rradius 37.9326
rwrist 0.132131
rhand -19.5098 -5.04567
rfingers 7.12502
rthumb 6.81302 -34.9161
lclavicle -1.76111e-014 -1.49089e-015
lhumerus -29.3237 9.53299 83.3499
lradius 22.1342
lwrist 11.4165
lhand -14.9774 9.6423
lfingers 7.12502
lthumb 11.1865 39.3241
rfemur -9.40932 2.69832 15.9154
rtibia 45.7329
rfoot -15.4477 0.521013
rtoes -7.32645
lfemur -3.91006 15.4663 -24.6375
ltibia 23.152
lfoot -28.0697 28.4353
ltoes 7.87608
3380
root -0.348451 16.3761 -6.02299 177.707 -28.716 -176.788
lowerback -0.152695 -1.2831 1.22222
upperback 3.04583 -1.83823 0.90135
thorax 3.20527 -0.93011 0.185992
lowerneck -1.97121 7.90651 10.2041
upperneck -0.254592 10.3347 -5.16618
head 1.13005 5.13043 -3.20909
rclavicle 2.72397e-014 1.18277e-014
rhumerus -43.057 -4.32794 -82.7953
rradius 37.9846
rwrist 0.137502
rhand -19.505 -5.04621
rfingers 7.12502
rthumb 6.81765 -34.9164
lclavicle 2.72397e-014 1.18277e-014
lhumerus -29.3607 9.76479 83.229
lradius 21.8949
lwrist 11.2353
lhand -14.9685 9.61007
lfingers 7.12502
lthumb 11.1951 39.2914
rfemur -9.72803 2.58143 15.6859
rtibia 46.3337
rfoot -15.0174 0.627609
rtoes -7.45376
lfemur -3.78237 15.442 -24.7747
ltibia 23.0244
lfoot -27.8338 28.5308
ltoes 7.43018
